cl__1 = 1e+22;
Point(1) = {0, 500, 500, cl__1};
Point(2) = {3000, 500, 500, cl__1};
Point(3) = {4060.66017178, 939.33982822, 500, cl__1};
Point(4) = {4368.544608953, 631.455391047, -245.79330075, cl__1};
Point(5) = {4368.544608953, 631.455391047, 245.79330075, cl__1};
Point(6) = {4414.213562373, 682.2222851800001, -250, cl__1};
Point(7) = {4500, 2000, 500, cl__1};
Point(8) = {4414.213562373, -414.213562373, -250, cl__1};
Point(9) = {4500, 5000, 500, cl__1};
p1 = newp;
Point(p1 + 1) = {0, 345.4915028125263, 475.5282581475768};
Point(p1 + 2) = {0, 206.1073738537634, 404.5084971874737};
Point(p1 + 3) = {0, 95.49150281252628, 293.8926261462366};
Point(p1 + 4) = {0, 24.47174185242324, 154.5084971874737};
Point(p1 + 5) = {0, 0, 3.061616997868383e-14};
Point(p1 + 6) = {0, 24.47174185242318, -154.5084971874737};
Point(p1 + 7) = {0, 95.49150281252628, -293.8926261462365};
Point(p1 + 8) = {0, 206.1073738537634, -404.5084971874737};
Point(p1 + 9) = {0, 345.4915028125263, -475.5282581475768};
Point(p1 + 10) = {0, 499.9999999999999, -500};
Point(p1 + 11) = {0, 654.5084971874738, -475.5282581475768};
Point(p1 + 12) = {0, 793.8926261462366, -404.5084971874737};
Point(p1 + 13) = {0, 904.5084971874737, -293.8926261462366};
Point(p1 + 14) = {0, 975.5282581475767, -154.5084971874738};
Point(p1 + 15) = {0, 1000, -9.184850993605149e-14};
Point(p1 + 16) = {0, 975.5282581475768, 154.5084971874736};
Point(p1 + 17) = {0, 904.5084971874737, 293.8926261462365};
Point(p1 + 18) = {0, 793.8926261462367, 404.5084971874737};
Point(p1 + 19) = {0, 654.5084971874738, 475.5282581475768};
Spline(1) = {1, p1 + 1, p1 + 2, p1 + 3, p1 + 4, p1 + 5, p1 + 6, p1 + 7, p1 + 8, p1 + 9, p1 + 10, p1 + 11, p1 + 12, p1 + 13, p1 + 14, p1 + 15, p1 + 16, p1 + 17, p1 + 18, p1 + 19, 1};
Line(2) = {1, 2};
p3 = newp;
Point(p3 + 1) = {3000, 345.4915028125263, 475.5282581475768};
Point(p3 + 2) = {3000, 206.1073738537634, 404.5084971874737};
Point(p3 + 3) = {3000, 95.49150281252628, 293.8926261462366};
Point(p3 + 4) = {3000, 24.47174185242324, 154.5084971874737};
Point(p3 + 5) = {3000, 0, 3.061616997868383e-14};
Point(p3 + 6) = {3000, 24.47174185242318, -154.5084971874737};
Point(p3 + 7) = {3000, 95.49150281252628, -293.8926261462365};
Point(p3 + 8) = {3000, 206.1073738537634, -404.5084971874737};
Point(p3 + 9) = {3000, 345.4915028125263, -475.5282581475768};
Point(p3 + 10) = {3000, 499.9999999999999, -500};
Point(p3 + 11) = {3000, 654.5084971874738, -475.5282581475768};
Point(p3 + 12) = {3000, 793.8926261462366, -404.5084971874737};
Point(p3 + 13) = {3000, 904.5084971874737, -293.8926261462366};
Point(p3 + 14) = {3000, 975.5282581475767, -154.5084971874738};
Point(p3 + 15) = {3000, 1000, -9.184850993605149e-14};
Point(p3 + 16) = {3000, 975.5282581475768, 154.5084971874736};
Point(p3 + 17) = {3000, 904.5084971874737, 293.8926261462365};
Point(p3 + 18) = {3000, 793.8926261462367, 404.5084971874737};
Point(p3 + 19) = {3000, 654.5084971874738, 475.5282581475768};
Spline(3) = {2, p3 + 1, p3 + 2, p3 + 3, p3 + 4, p3 + 5, p3 + 6, p3 + 7, p3 + 8, p3 + 9, p3 + 10, p3 + 11, p3 + 12, p3 + 13, p3 + 14, p3 + 15, p3 + 16, p3 + 17, p3 + 18, p3 + 19, 2};
p4 = newp;
Point(p4 + 1) = {3986.984778157176, 1013.015221842824, 489.0233867097195};
Point(p4 + 2) = {3916.54420975358, 1083.455790246421, 456.5754909961755};
Point(p4 + 3) = {3852.431262086467, 1147.568737913534, 404.0809848726915};
Point(p4 + 4) = {3797.460907289604, 1202.539092710396, 333.8447159135947};
Point(p4 + 5) = {3754.046698671131, 1245.95330132887, 248.9505095721495};
Point(p4 + 6) = {3724.094800148281, 1275.905199851719, 153.1257693427374};
Point(p4 + 7) = {3708.920293350635, 1291.079706649365, 50.57781969391762};
Point(p4 + 8) = {3709.189437050147, 1290.810562949854, -54.19082262628502};
Point(p4 + 9) = {3724.89041410158, 1275.109585898421, -156.580138131084};
Point(p4 + 10) = {3755.333850291442, 1244.666149708559, -252.0945751350683};
Point(p4 + 11) = {3799.183082314599, 1200.816917685402, -336.540433483712};
Point(p4 + 12) = {3854.512845919075, 1145.487154080925, -406.2099950527792};
Point(p4 + 13) = {3918.893807430754, 1081.106192569246, -458.0443165004821};
Point(p4 + 14) = {3989.499227178557, 1010.500772821444, -489.7675366200382};
Point(p4 + 15) = {4063.229071607404, 936.7709283925969, -499.9868013331487};
Point(p4 + 16) = {4136.846124756303, 863.1538752436976, -488.253418972346};
Point(p4 + 17) = {4207.118122929312, 792.881877070688, -455.0825607406766};
Point(p4 + 18) = {4270.959671930112, 729.040328069889, -401.9306413714026};
Point(p4 + 19) = {4325.567715777762, 674.4322842222389, -331.131373122736};
Spline(4) = {3, p4 + 1, p4 + 2, p4 + 3, p4 + 4, p4 + 5, p4 + 6, p4 + 7, p4 + 8, p4 + 9, p4 + 10, p4 + 11, p4 + 12, p4 + 13, p4 + 14, p4 + 15, p4 + 16, p4 + 17, p4 + 18, p4 + 19, 4};
p5 = newp;
Point(p5 + 1) = {4345.572877652785, 604.6852386216375, -240.3923007617162};
Point(p5 + 2) = {4322.994905414697, 577.6586936696217, -232.7641640680597};
Point(p5 + 3) = {4300.767366783573, 550.4291470942622, -222.7777994207692};
Point(p5 + 4) = {4278.858768638483, 523.0552184561452, -210.1882040209712};
Point(p5 + 5) = {4257.254972907434, 495.6088777649367, -194.5867455187731};
Point(p5 + 6) = {4235.971012888231, 468.1920472912327, -175.298576353168};
Point(p5 + 7) = {4215.080832120467, 440.9771669455259, -151.1494545646733};
Point(p5 + 8) = {4194.814622518108, 414.3379405400315, -119.8503397516733};
Point(p5 + 9) = {4175.984125271987, 389.4180661287517, -75.80724348204343};
Point(p5 + 10) = {4164.214054653815, 373.7759532008267, -0.4958595186697945};
Point(p5 + 11) = {4175.826478644009, 389.2088628901122, 75.31002471433138};
Point(p5 + 12) = {4194.642733123434, 414.1111372957274, 119.535136692891};
Point(p5 + 13) = {4214.913604628549, 440.7582396792811, 150.9288804151161};
Point(p5 + 14) = {4235.824287029482, 468.0018870087837, 175.1492663910017};
Point(p5 + 15) = {4257.130800161318, 495.4499494919396, 194.4865181702261};
Point(p5 + 16) = {4278.758011615327, 522.9282058028816, 210.1232820940245};
Point(p5 + 17) = {4300.690727068154, 550.334273569315, 222.7387886802383};
Point(p5 + 18) = {4322.94304766708, 577.595857503416, 232.7438237962443};
Point(p5 + 19) = {4345.546520951229, 604.654088150656, 240.3847771846197};
Spline(5) = {4, p5 + 1, p5 + 2, p5 + 3, p5 + 4, p5 + 5, p5 + 6, p5 + 7, p5 + 8, p5 + 9, p5 + 10, p5 + 11, p5 + 12, p5 + 13, p5 + 14, p5 + 15, p5 + 16, p5 + 17, p5 + 18, p5 + 19, 5};
p6 = newp;
Point(p6 + 1) = {4060.66017178, 939.33982822, 0};
Circle(6) = {5, p6 + 1, 3};
p7 = newp;
Point(p7 + 1) = {3000, 2000, 500};
Circle(7) = {2, p7 + 1, 3};
p8 = newp;
Point(p8 + 1) = {4393.619887248504, 659.7559521185968, 249.1503597061428};
Point(p8 + 2) = {4419.372614355992, 687.735430623756, 249.9467674204426};
Point(p8 + 3) = {4445.900238022828, 715.3256744112238, 247.9837716160414};
Point(p8 + 4) = {4473.303371076343, 742.4442895075083, 242.916405873909};
Point(p8 + 5) = {4501.674555787691, 768.9863690707183, 234.2019962721015};
Point(p8 + 6) = {4531.074248994852, 794.8103837308229, 221.0058390738698};
Point(p8 + 7) = {4561.476647502838, 819.7101448204678, 202.023724776175};
Point(p8 + 8) = {4592.63318780406, 843.34753279227, 175.1183542812632};
Point(p8 + 9) = {4623.661578552581, 865.0485254378915, 136.4973609162594};
Point(p8 + 10) = {4651.528896435184, 883.0351367831697, 78.6220941971221};
Point(p8 + 11) = {4664.000942184764, 890.6417296178524, -10.30851466032696};
Point(p8 + 12) = {4646.430825983249, 879.8480014521325, -92.60206785012278};
Point(p8 + 13) = {4617.441560940871, 860.8420723837705, -145.5966426828338};
Point(p8 + 14) = {4586.277372215373, 838.6779285478191, -181.3671566275455};
Point(p8 + 15) = {4555.258131142349, 814.7657434879063, -206.413250026661};
Point(p8 + 16) = {4525.072709768414, 789.6783962751335, -224.0764424222833};
Point(p8 + 17) = {4495.905134900658, 763.7172440896202, -236.2762935490894};
Point(p8 + 18) = {4467.756818765752, 737.071498854779, -244.1989421628695};
Point(p8 + 19) = {4440.558049060858, 709.873407930691, -248.6080753825641};
Spline(8) = {5, p8 + 1, p8 + 2, p8 + 3, p8 + 4, p8 + 5, p8 + 6, p8 + 7, p8 + 8, p8 + 9, p8 + 10, p8 + 11, p8 + 12, p8 + 13, p8 + 14, p8 + 15, p8 + 16, p8 + 17, p8 + 18, p8 + 19, 6};
p9 = newp;
Point(p9 + 1) = {4411.640348509891, 679.4549645338432, -249.9867567503429};
Point(p9 + 2) = {4409.083825833562, 676.6941609985109, -249.9473660194818};
Point(p9 + 3) = {4406.548308518406, 673.9448583053925, -249.8824601337637};
Point(p9 + 4) = {4404.03747980637, 671.211423509151, -249.7928088684711};
Point(p9 + 5) = {4401.55445782585, 668.4976627189482, -249.6792884686896};
Point(p9 + 6) = {4399.101853102617, 665.806869822939, -249.5428545234566};
Point(p9 + 7) = {4396.681818706405, 663.1418690180816, -249.3845182584393};
Point(p9 + 8) = {4394.296093906265, 660.5050518952771, -249.2053258444984};
Point(p9 + 9) = {4391.946042137304, 657.8984097678402, -249.0063403515946};
Point(p9 + 10) = {4389.632684010899, 655.3235618692773, -248.7886260096016};
Point(p9 + 11) = {4387.356726029993, 652.7817799843255, -248.5532344696928};
Point(p9 + 12) = {4385.118585600566, 650.2740100151887, -248.3011927920733};
Point(p9 + 13) = {4382.918412859841, 647.8008909228835, -248.0334929179329};
Point(p9 + 14) = {4380.756109771341, 645.3627714215847, -247.7510824156003};
Point(p9 + 15) = {4378.631346866325, 642.9597247418432, -247.4548563229835};
Point(p9 + 16) = {4376.543577940701, 640.5915617165222, -247.1456499404849};
Point(p9 + 17) = {4374.492052945955, 638.2578423812831, -246.8242324606837};
Point(p9 + 18) = {4372.475829242157, 635.9578862194247, -246.4913013531844};
Point(p9 + 19) = {4370.493781310585, 633.6907811188603, -246.1474774551318};
Spline(9) = {6, p9 + 1, p9 + 2, p9 + 3, p9 + 4, p9 + 5, p9 + 6, p9 + 7, p9 + 8, p9 + 9, p9 + 10, p9 + 11, p9 + 12, p9 + 13, p9 + 14, p9 + 15, p9 + 16, p9 + 17, p9 + 18, p9 + 19, 4};
p10 = newp;
Point(p10 + 1) = {3000, 2000, 500};
Circle(10) = {3, p10 + 1, 7};
p11 = newp;
Point(p11 + 1) = {4345.491502812526, 2000, 475.5282581475768};
Point(p11 + 2) = {4206.107373853763, 2000, 404.5084971874737};
Point(p11 + 3) = {4095.491502812527, 2000, 293.8926261462366};
Point(p11 + 4) = {4024.471741852423, 2000, 154.5084971874738};
Point(p11 + 5) = {4000, 2000, 6.123233995736766e-14};
Point(p11 + 6) = {4024.471741852423, 2000, -154.5084971874736};
Point(p11 + 7) = {4095.491502812526, 2000, -293.8926261462365};
Point(p11 + 8) = {4206.107373853763, 2000, -404.5084971874737};
Point(p11 + 9) = {4345.491502812526, 2000, -475.5282581475768};
Point(p11 + 10) = {4500, 2000, -500};
Point(p11 + 11) = {4654.508497187474, 2000, -475.5282581475768};
Point(p11 + 12) = {4793.892626146237, 2000, -404.5084971874738};
Point(p11 + 13) = {4904.508497187474, 2000, -293.8926261462367};
Point(p11 + 14) = {4975.528258147577, 2000, -154.5084971874738};
Point(p11 + 15) = {5000, 2000, -1.224646799147353e-13};
Point(p11 + 16) = {4975.528258147577, 2000, 154.5084971874736};
Point(p11 + 17) = {4904.508497187474, 2000, 293.8926261462365};
Point(p11 + 18) = {4793.892626146237, 2000, 404.5084971874736};
Point(p11 + 19) = {4654.508497187474, 2000, 475.5282581475768};
Spline(11) = {7, p11 + 1, p11 + 2, p11 + 3, p11 + 4, p11 + 5, p11 + 6, p11 + 7, p11 + 8, p11 + 9, p11 + 10, p11 + 11, p11 + 12, p11 + 13, p11 + 14, p11 + 15, p11 + 16, p11 + 17, p11 + 18, p11 + 19, 7};
Line(12) = {8, 6};
p13 = newp;
Point(p13 + 1) = {4491.467810966737, -414.213562373, -237.7641290737884};
Point(p13 + 2) = {4561.159875446118, -414.213562373, -202.2542485937369};
Point(p13 + 3) = {4616.467810966737, -414.213562373, -146.9463130731183};
Point(p13 + 4) = {4651.977691446788, -414.213562373, -77.25424859373686};
Point(p13 + 5) = {4664.213562373, -414.213562373, -1.530808498934192e-14};
Point(p13 + 6) = {4651.977691446788, -414.213562373, 77.25424859373683};
Point(p13 + 7) = {4616.467810966737, -414.213562373, 146.9463130731183};
Point(p13 + 8) = {4561.159875446118, -414.213562373, 202.2542485937368};
Point(p13 + 9) = {4491.467810966737, -414.213562373, 237.7641290737884};
Point(p13 + 10) = {4414.213562373, -414.213562373, 250};
Point(p13 + 11) = {4336.959313779264, -414.213562373, 237.7641290737884};
Point(p13 + 12) = {4267.267249299882, -414.213562373, 202.2542485937369};
Point(p13 + 13) = {4211.959313779264, -414.213562373, 146.9463130731183};
Point(p13 + 14) = {4176.449433299212, -414.213562373, 77.25424859373689};
Point(p13 + 15) = {4164.213562373, -414.213562373, 4.592425496802574e-14};
Point(p13 + 16) = {4176.449433299212, -414.213562373, -77.2542485937368};
Point(p13 + 17) = {4211.959313779264, -414.213562373, -146.9463130731182};
Point(p13 + 18) = {4267.267249299882, -414.213562373, -202.2542485937368};
Point(p13 + 19) = {4336.959313779264, -414.213562373, -237.7641290737884};
Spline(13) = {8, p13 + 1, p13 + 2, p13 + 3, p13 + 4, p13 + 5, p13 + 6, p13 + 7, p13 + 8, p13 + 9, p13 + 10, p13 + 11, p13 + 12, p13 + 13, p13 + 14, p13 + 15, p13 + 16, p13 + 17, p13 + 18, p13 + 19, 8};
Line(14) = {7, 9};
p15 = newp;
Point(p15 + 1) = {4654.508497187474, 5000, 475.5282581475768};
Point(p15 + 2) = {4793.892626146237, 5000, 404.5084971874737};
Point(p15 + 3) = {4904.508497187474, 5000, 293.8926261462366};
Point(p15 + 4) = {4975.528258147577, 5000, 154.5084971874737};
Point(p15 + 5) = {5000, 5000, 3.061616997868383e-14};
Point(p15 + 6) = {4975.528258147577, 5000, -154.5084971874737};
Point(p15 + 7) = {4904.508497187474, 5000, -293.8926261462365};
Point(p15 + 8) = {4793.892626146237, 5000, -404.5084971874737};
Point(p15 + 9) = {4654.508497187474, 5000, -475.5282581475768};
Point(p15 + 10) = {4500, 5000, -500};
Point(p15 + 11) = {4345.491502812526, 5000, -475.5282581475768};
Point(p15 + 12) = {4206.107373853763, 5000, -404.5084971874737};
Point(p15 + 13) = {4095.491502812527, 5000, -293.8926261462366};
Point(p15 + 14) = {4024.471741852423, 5000, -154.5084971874738};
Point(p15 + 15) = {4000, 5000, -9.184850993605149e-14};
Point(p15 + 16) = {4024.471741852423, 5000, 154.5084971874736};
Point(p15 + 17) = {4095.491502812526, 5000, 293.8926261462365};
Point(p15 + 18) = {4206.107373853763, 5000, 404.5084971874737};
Point(p15 + 19) = {4345.491502812526, 5000, 475.5282581475768};
Spline(15) = {9, p15 + 1, p15 + 2, p15 + 3, p15 + 4, p15 + 5, p15 + 6, p15 + 7, p15 + 8, p15 + 9, p15 + 10, p15 + 11, p15 + 12, p15 + 13, p15 + 14, p15 + 15, p15 + 16, p15 + 17, p15 + 18, p15 + 19, 9};
Line Loop(1) = {1};
Plane Surface(1) = {1};
Line Loop(2) = {2, 3, -2, 1};
Ruled Surface(2) = {2};
Line Loop(3) = {4, 5, 6, -7, 3, 7};
Line Loop(4) = {6, 10, 11, -10, 4, -9, -8};
Line Loop(5) = {5, 8, -12, 13, 12, 9};
Line Loop(6) = {14, 15, -14, 11};
Ruled Surface(6) = {6};
Line Loop(7) = {13};
Plane Surface(7) = {7};
Line Loop(8) = {15};
Plane Surface(8) = {8};
Surface Loop(1) = {4, 8, 5, 1, 3, 7, 6, 2};
Volume(1) = {1};
